<?xml version="1.0" encoding="UTF-8"?>
<svg id="Calque_1" xmlns="http://www.w3.org/2000/svg" xmlns:xlink="http://www.w3.org/1999/xlink" viewBox="0 0 795 575">
  <defs>
    <style>
      .cls-1 {
        font-size: 25.2px;
      }

      .cls-1, .cls-2, .cls-3, .cls-4, .cls-5, .cls-6 {
        isolation: isolate;
      }

      .cls-1, .cls-4 {
        fill: #333;
      }

      .cls-1, .cls-5, .cls-6 {
        font-family: Arial-BoldMT, Arial;
        font-weight: 700;
      }

      .cls-7 {
        fill: #0d7496;
      }

      .cls-8 {
        clip-path: url(#clippath-6);
      }

      .cls-9 {
        clip-path: url(#clippath-7);
      }

      .cls-2 {
        fill: #4a4a4a;
      }

      .cls-2, .cls-4 {
        font-family: ArialMT, Arial;
      }

      .cls-2, .cls-4, .cls-5, .cls-6 {
        font-size: 14px;
      }

      .cls-10 {
        clip-path: url(#clippath-4);
      }

      .cls-11, .cls-12, .cls-13, .cls-14, .cls-6, .cls-15, .cls-16 {
        fill: none;
      }

      .cls-11, .cls-15 {
        stroke: #eee;
        stroke-width: 1.6px;
      }

      .cls-17 {
        fill: rgba(236, 65, 65, .7);
      }

      .cls-18 {
        letter-spacing: -.06em;
      }

      .cls-13 {
        stroke: #aaa;
      }

      .cls-14 {
        stroke: #ec4141;
      }

      .cls-14, .cls-16 {
        stroke-width: 2.8px;
      }

      .cls-19 {
        letter-spacing: -.07em;
      }

      .cls-20 {
        clip-path: url(#clippath-1);
      }

      .cls-21 {
        clip-path: url(#clippath-5);
      }

      .cls-22 {
        clip-path: url(#clippath-3);
      }

      .cls-23 {
        fill: #ec4141;
      }

      .cls-24 {
        letter-spacing: -.02em;
      }

      .cls-5 {
        fill: #4f4f4f;
      }

      .cls-6 {
        stroke: #f5f5f5;
        stroke-width: 3.5px;
      }

      .cls-25 {
        clip-path: url(#clippath-2);
      }

      .cls-15 {
        stroke-linecap: square;
      }

      .cls-16 {
        stroke: #0d7496;
      }

      .cls-26 {
        letter-spacing: -.04em;
      }

      .cls-27 {
        clip-path: url(#clippath);
      }

      .cls-28 {
        fill: rgba(13, 116, 150, .7);
      }
    </style>
    <clipPath id="clippath">
      <rect class="cls-12" x="61.2" y="107.9" width="618.8" height="311.9"/>
    </clipPath>
    <clipPath id="clippath-1">
      <rect class="cls-12" x="61.2" y="107.9" width="618.8" height="311.9"/>
    </clipPath>
    <clipPath id="clippath-2">
      <rect class="cls-12" x="61.2" y="107.9" width="618.8" height="311.9"/>
    </clipPath>
    <clipPath id="clippath-3">
      <rect class="cls-12" x="57.7" y="107.9" width="625.8" height="309.1"/>
    </clipPath>
    <clipPath id="clippath-4">
      <rect class="cls-12" x="61.2" y="107.9" width="618.8" height="311.9"/>
    </clipPath>
    <clipPath id="clippath-5">
      <rect class="cls-12" x="61.2" y="107.9" width="618.8" height="311.9"/>
    </clipPath>
    <clipPath id="clippath-6">
      <rect class="cls-12" x="61.2" y="107.9" width="618.8" height="311.9"/>
    </clipPath>
    <clipPath id="clippath-7">
      <rect class="cls-12" x="57.7" y="107.9" width="625.8" height="309.1"/>
    </clipPath>
  </defs>
  <g id="X_et_Y">
    <g>
      <g>
        <line class="cls-11" x1="61.2" y1="416.9" x2="683.5" y2="416.9"/>
        <line class="cls-11" x1="61.2" y1="356.4" x2="683.5" y2="356.4"/>
        <line class="cls-11" x1="61.2" y1="295.8" x2="683.5" y2="295.8"/>
        <line class="cls-11" x1="61.2" y1="235.3" x2="683.5" y2="235.3"/>
        <line class="cls-11" x1="61.2" y1="174.7" x2="683.5" y2="174.7"/>
        <line class="cls-11" x1="61.2" y1="114.2" x2="683.5" y2="114.2"/>
      </g>
      <g>
        <g>
          <line class="cls-15" x1="61.2" y1="416.9" x2="683.5" y2="416.9"/>
          <g>
            <g>
              <line class="cls-11" x1="76" y1="416.9" x2="76" y2="423.9"/>
              <g class="cls-3">
                <g class="cls-3">
                  <text class="cls-2" transform="translate(18.7 497.7) rotate(-45)"><tspan x="0" y="0">MONTLUCON</tspan></text>
                </g>
              </g>
            </g>
            <g>
              <line class="cls-11" x1="105.6" y1="416.9" x2="105.6" y2="423.9"/>
              <g class="cls-3">
                <g class="cls-3">
                  <text class="cls-2" transform="translate(67.1 479.1) rotate(-45)"><tspan x="0" y="0">MOULINS</tspan></text>
                </g>
              </g>
            </g>
            <g>
              <line class="cls-11" x1="135.3" y1="416.9" x2="135.3" y2="423.9"/>
              <g class="cls-3">
                <g class="cls-3">
                  <text class="cls-2" transform="translate(101.7 474.1) rotate(-45)"><tspan x="0" y="0">YZEURE</tspan></text>
                </g>
              </g>
            </g>
            <g>
              <line class="cls-11" x1="164.9" y1="416.9" x2="164.9" y2="423.9"/>
              <g class="cls-3">
                <g class="cls-3">
                  <text class="cls-2" transform="translate(131.3 474.1) rotate(-45)"><tspan x="0" y="0">CUSSE</tspan><tspan class="cls-24" x="48.23" y="0">T</tspan></text>
                </g>
              </g>
            </g>
            <g>
              <line class="cls-11" x1="194.5" y1="416.9" x2="194.5" y2="423.9"/>
              <g class="cls-3">
                <g class="cls-3">
                  <text class="cls-2" transform="translate(148.4 486.6) rotate(-45)"><tspan x="0" y="0">LA</tspan><tspan class="cls-19" x="17.12" y="0">P</tspan><tspan x="25.42" y="0">ALISSE</tspan></text>
                </g>
              </g>
            </g>
            <g>
              <line class="cls-11" x1="224.2" y1="416.9" x2="224.2" y2="423.9"/>
              <g class="cls-3">
                <g class="cls-3">
                  <text class="cls-2" transform="translate(92.1 572.6) rotate(-45)"><tspan x="0" y="0">SAIN</tspan><tspan class="cls-18" x="32.68" y="0">T</tspan><tspan x="40.46" y="0">-POURCAIN-SUR-SIO…</tspan></text>
                </g>
              </g>
            </g>
            <g>
              <line class="cls-11" x1="253.8" y1="416.9" x2="253.8" y2="423.9"/>
              <g class="cls-3">
                <g class="cls-3">
                  <text class="cls-2" transform="translate(195.6 498.7) rotate(-45)"><tspan x="0" y="0">COMMENT</tspan><tspan class="cls-24" x="72.32" y="0">RY</tspan></text>
                </g>
              </g>
            </g>
            <g>
              <line class="cls-11" x1="283.5" y1="416.9" x2="283.5" y2="423.9"/>
              <g class="cls-3">
                <g class="cls-3">
                  <text class="cls-2" transform="translate(242.3 481.6) rotate(-45)"><tspan class="cls-19" x="0" y="0">A</tspan><tspan x="8.3" y="0">VERMES</tspan></text>
                </g>
              </g>
            </g>
            <g>
              <line class="cls-11" x1="313.1" y1="416.9" x2="313.1" y2="423.9"/>
              <g class="cls-3">
                <g class="cls-3">
                  <text class="cls-2" transform="translate(277.3 476.3) rotate(-45)"><tspan x="0" y="0">EBREUI</tspan><tspan class="cls-26" x="52.12" y="0">L</tspan></text>
                </g>
              </g>
            </g>
            <g>
              <line class="cls-11" x1="342.7" y1="416.9" x2="342.7" y2="423.9"/>
              <g class="cls-3">
                <g class="cls-3">
                  <text class="cls-2" transform="translate(233.7 549.5) rotate(-45)"><tspan x="0" y="0">BELLERIVE-SUR-ALLIER</tspan></text>
                </g>
              </g>
            </g>
            <g>
              <line class="cls-11" x1="372.4" y1="416.9" x2="372.4" y2="423.9"/>
              <g class="cls-3">
                <g class="cls-3">
                  <text class="cls-2" transform="translate(338.4 474.5) rotate(-45)"><tspan x="0" y="0">GANN</tspan><tspan class="cls-19" x="40.45" y="0">A</tspan><tspan class="cls-24" x="48.75" y="0">T</tspan></text>
                </g>
              </g>
            </g>
            <g>
              <line class="cls-11" x1="402" y1="416.9" x2="402" y2="423.9"/>
              <g class="cls-3">
                <g class="cls-3">
                  <text class="cls-2" transform="translate(299.8 542.7) rotate(-45)"><tspan class="cls-19" x="0" y="0">V</tspan><tspan x="8.3" y="0">ARENNES-SUR-LLIER</tspan></text>
                </g>
              </g>
            </g>
            <g>
              <line class="cls-11" x1="431.6" y1="416.9" x2="431.6" y2="423.9"/>
              <g class="cls-3">
                <g class="cls-3">
                  <text class="cls-2" transform="translate(335.5 536.6) rotate(-45)"><tspan class="cls-24" x="0" y="0">T</tspan><tspan x="8.3" y="0">OULON-SUR-ALLIER</tspan></text>
                </g>
              </g>
            </g>
            <g>
              <line class="cls-11" x1="461.3" y1="416.9" x2="461.3" y2="423.9"/>
              <g class="cls-3">
                <g class="cls-3">
                  <text class="cls-2" transform="translate(437.5 464.2) rotate(-45)"><tspan x="0" y="0">VICH</tspan><tspan class="cls-24" x="33.45" y="0">Y</tspan></text>
                </g>
              </g>
            </g>
            <g>
              <line class="cls-11" x1="490.9" y1="416.9" x2="490.9" y2="423.9"/>
              <g class="cls-3">
                <g class="cls-3">
                  <text class="cls-2" transform="translate(446.3 485.1) rotate(-45)"><tspan x="0" y="0">CHARMEI</tspan><tspan class="cls-26" x="64.56" y="0">L</tspan></text>
                </g>
              </g>
            </g>
            <g>
              <line class="cls-11" x1="520.5" y1="416.9" x2="520.5" y2="423.9"/>
              <g class="cls-3">
                <g class="cls-3">
                  <text class="cls-2" transform="translate(493 468.1) rotate(-45)"><tspan x="0" y="0">DOYE</tspan><tspan class="cls-24" x="39.68" y="0">T</tspan></text>
                </g>
              </g>
            </g>
            <g>
              <line class="cls-11" x1="550.2" y1="416.9" x2="550.2" y2="423.9"/>
              <g class="cls-3">
                <g class="cls-3">
                  <text class="cls-2" transform="translate(429.1 561.6) rotate(-45)"><tspan x="0" y="0">DOMPIERRE-SUR-BESBRE</tspan></text>
                </g>
              </g>
            </g>
            <g>
              <line class="cls-11" x1="579.8" y1="416.9" x2="579.8" y2="423.9"/>
              <g class="cls-3">
                <g class="cls-3">
                  <text class="cls-2" transform="translate(560.1 460.2) rotate(-45)"><tspan class="cls-19" x="0" y="0">V</tspan><tspan x="8.3" y="0">AUX</tspan></text>
                </g>
              </g>
            </g>
            <g>
              <line class="cls-11" x1="609.4" y1="416.9" x2="609.4" y2="423.9"/>
              <g class="cls-3">
                <g class="cls-3">
                  <text class="cls-2" transform="translate(481.2 568.8) rotate(-45)"><tspan x="0" y="0">BOURBON-L&apos;ARCHAMBAU</tspan><tspan class="cls-19" x="175.36" y="0">L</tspan><tspan class="cls-24" x="182.11" y="0">T</tspan></text>
                </g>
              </g>
            </g>
            <g>
              <line class="cls-11" x1="639.1" y1="416.9" x2="639.1" y2="423.9"/>
              <g class="cls-3">
                <g class="cls-3">
                  <text class="cls-2" transform="translate(576.5 503.1) rotate(-45)"><tspan x="0" y="0">SAIN</tspan><tspan class="cls-18" x="32.68" y="0">T</tspan><tspan x="40.46" y="0">-VIC</tspan><tspan class="cls-24" x="68.46" y="0">T</tspan><tspan x="76.75" y="0">OR</tspan></text>
                </g>
              </g>
            </g>
            <g>
              <line class="cls-11" x1="668.7" y1="416.9" x2="668.7" y2="423.9"/>
              <g class="cls-3">
                <g class="cls-3">
                  <text class="cls-2" transform="translate(629.6 479.6) rotate(-45)"><tspan x="0" y="0">SAZERE</tspan><tspan class="cls-24" x="56.01" y="0">T</tspan></text>
                </g>
              </g>
            </g>
          </g>
        </g>
        <g>
          <line class="cls-15" x1="61.2" y1="416.9" x2="61.2" y2="110.7"/>
          <g>
            <g>
              <line class="cls-11" x1="61.2" y1="416.9" x2="54.2" y2="416.9"/>
              <g class="cls-3">
                <g class="cls-3">
                  <text class="cls-2" transform="translate(42.9 421.5)"><tspan x="0" y="0">0</tspan></text>
                </g>
              </g>
            </g>
            <g>
              <line class="cls-11" x1="61.2" y1="114.2" x2="54.2" y2="114.2"/>
              <g class="cls-3">
                <g class="cls-3">
                  <text class="cls-2" transform="translate(27.3 118.8)"><tspan x="0" y="0">500</tspan></text>
                </g>
              </g>
            </g>
            <g>
              <line class="cls-11" x1="61.2" y1="174.7" x2="54.2" y2="174.7"/>
              <g class="cls-3">
                <g class="cls-3">
                  <text class="cls-2" transform="translate(27.3 179.3)"><tspan x="0" y="0">400</tspan></text>
                </g>
              </g>
            </g>
            <g>
              <line class="cls-11" x1="61.2" y1="235.3" x2="54.2" y2="235.3"/>
              <g class="cls-3">
                <g class="cls-3">
                  <text class="cls-2" transform="translate(27.3 239.9)"><tspan x="0" y="0">300</tspan></text>
                </g>
              </g>
            </g>
            <g>
              <line class="cls-11" x1="61.2" y1="295.8" x2="54.2" y2="295.8"/>
              <g class="cls-3">
                <g class="cls-3">
                  <text class="cls-2" transform="translate(27.3 300.4)"><tspan x="0" y="0">200</tspan></text>
                </g>
              </g>
            </g>
            <g>
              <line class="cls-11" x1="61.2" y1="356.4" x2="54.2" y2="356.4"/>
              <g class="cls-3">
                <g class="cls-3">
                  <text class="cls-2" transform="translate(27.3 361)"><tspan x="0" y="0">100</tspan></text>
                </g>
              </g>
            </g>
          </g>
        </g>
      </g>
    </g>
  </g>
  <g id="nbre_x5F_pdc">
    <g id="lines">
      <g>
        <path class="cls-12" d="M674.2,407.2h1.8v12.6h1.8"/>
        <g class="cls-3">
          <g class="cls-3">
            <text class="cls-6" transform="translate(681.2 424.5)"><tspan x="0" y="0">nbre_pdc</tspan></text>
          </g>
        </g>
        <g class="cls-3">
          <g class="cls-3">
            <text class="cls-5" transform="translate(681.2 424.5)"><tspan x="0" y="0">nbre_pdc</tspan></text>
          </g>
        </g>
      </g>
    </g>
  </g>
  <g id="ligne_bleu">
    <g class="cls-27">
      <path class="cls-28" d="M76,405.4c9.9,3.3,19.8,6.7,29.6,6.7s19.8-1.8,29.6-1.8,19.8,4.2,29.6,4.2h29.6c9.9,0,19.8-3.6,29.6-3.6s19.8,3.6,29.6,3.6,19.8-3.6,29.6-3.6,19.8,5.4,29.6,5.4,19.8-.9,29.6-1.2c9.9-.3,19.8-.6,29.6-.6h29.6c9.9,0,19.8-8.5,29.6-8.5s19.8,7.3,29.6,7.3h29.6c9.9,0,19.8,3,29.6,3s19.8-.6,29.6-.6h29.6c9.9,0,19.8-.4,29.6-1.2,9.9-.8,19.8-4.2,29.6-5.5,9.9-1.2,19.8-1.5,29.6-1.8v9.7H76v-11.5Z"/>
    </g>
    <g>
      <g class="cls-20">
        <path class="cls-12" d="M76,405.4c9.9,3.3,19.8,6.7,29.6,6.7s19.8-1.8,29.6-1.8,19.8,4.2,29.6,4.2h29.6c9.9,0,19.8-3.6,29.6-3.6s19.8,3.6,29.6,3.6,19.8-3.6,29.6-3.6,19.8,5.4,29.6,5.4,19.8-.9,29.6-1.2c9.9-.3,19.8-.6,29.6-.6h29.6c9.9,0,19.8-8.5,29.6-8.5s19.8,7.3,29.6,7.3h29.6c9.9,0,19.8,3,29.6,3s19.8-.6,29.6-.6h29.6c9.9,0,19.8-.4,29.6-1.2,9.9-.8,19.8-4.2,29.6-5.5,9.9-1.2,19.8-1.5,29.6-1.8" pointer-events="none"/>
      </g>
      <g class="cls-25">
        <path class="cls-16" d="M76,405.4c9.9,3.3,19.8,6.7,29.6,6.7s19.8-1.8,29.6-1.8,19.8,4.2,29.6,4.2h29.6c9.9,0,19.8-3.6,29.6-3.6s19.8,3.6,29.6,3.6,19.8-3.6,29.6-3.6,19.8,5.4,29.6,5.4,19.8-.9,29.6-1.2c9.9-.3,19.8-.6,29.6-.6h29.6c9.9,0,19.8-8.5,29.6-8.5s19.8,7.3,29.6,7.3h29.6c9.9,0,19.8,3,29.6,3s19.8-.6,29.6-.6h29.6c9.9,0,19.8-.4,29.6-1.2,9.9-.8,19.8-4.2,29.6-5.5,9.9-1.2,19.8-1.5,29.6-1.8" pointer-events="none"/>
      </g>
    </g>
    <g class="cls-22">
      <g>
        <path id="point-0-0" class="cls-7" d="M72.5,405.4c0-1.9,1.6-3.5,3.5-3.5s3.5,1.6,3.5,3.5h0c0,1.9-1.6,3.5-3.5,3.5s-3.5-1.6-3.5-3.5h0Z"/>
        <path id="point-0-1" class="cls-7" d="M102.1,412.1c0-1.9,1.6-3.5,3.5-3.5s3.5,1.6,3.5,3.5-1.6,3.5-3.5,3.5-3.5-1.6-3.5-3.5Z"/>
        <path id="point-0-2" class="cls-7" d="M131.8,410.3c0-1.9,1.6-3.5,3.5-3.5s3.5,1.6,3.5,3.5-1.6,3.5-3.5,3.5-3.5-1.6-3.5-3.5Z"/>
        <path id="point-0-3" class="cls-7" d="M161.4,414.5c0-1.9,1.6-3.5,3.5-3.5s3.5,1.6,3.5,3.5-1.6,3.5-3.5,3.5-3.5-1.6-3.5-3.5Z"/>
        <path id="point-0-4" class="cls-7" d="M191,414.5c0-1.9,1.6-3.5,3.5-3.5s3.5,1.6,3.5,3.5-1.6,3.5-3.5,3.5-3.5-1.6-3.5-3.5Z"/>
        <path id="point-0-5" class="cls-7" d="M220.7,410.9c0-1.9,1.6-3.5,3.5-3.5s3.5,1.6,3.5,3.5-1.6,3.5-3.5,3.5-3.5-1.6-3.5-3.5Z"/>
        <path id="point-0-6" class="cls-7" d="M250.3,414.5c0-1.9,1.6-3.5,3.5-3.5s3.5,1.6,3.5,3.5-1.6,3.5-3.5,3.5-3.5-1.6-3.5-3.5h0Z"/>
        <path id="point-0-7" class="cls-7" d="M280,410.9c0-1.9,1.6-3.5,3.5-3.5s3.5,1.6,3.5,3.5-1.6,3.5-3.5,3.5-3.5-1.6-3.5-3.5Z"/>
        <path id="point-0-8" class="cls-7" d="M309.6,416.3c0-1.9,1.6-3.5,3.5-3.5s3.5,1.6,3.5,3.5-1.6,3.5-3.5,3.5-3.5-1.6-3.5-3.5Z"/>
        <path id="point-0-9" class="cls-7" d="M339.2,415.1c0-1.9,1.6-3.5,3.5-3.5s3.5,1.6,3.5,3.5-1.6,3.5-3.5,3.5-3.5-1.6-3.5-3.5Z"/>
        <path id="point-0-10" class="cls-7" d="M368.9,414.5c0-1.9,1.6-3.5,3.5-3.5s3.5,1.6,3.5,3.5-1.6,3.5-3.5,3.5-3.5-1.6-3.5-3.5Z"/>
        <path id="point-0-11" class="cls-7" d="M398.5,414.5c0-1.9,1.6-3.5,3.5-3.5s3.5,1.6,3.5,3.5-1.6,3.5-3.5,3.5-3.5-1.6-3.5-3.5Z"/>
        <path id="point-0-12" class="cls-7" d="M428.1,406c0-1.9,1.6-3.5,3.5-3.5s3.5,1.6,3.5,3.5-1.6,3.5-3.5,3.5-3.5-1.6-3.5-3.5Z"/>
        <path id="point-0-13" class="cls-7" d="M457.8,413.3c0-1.9,1.6-3.5,3.5-3.5s3.5,1.6,3.5,3.5-1.6,3.5-3.5,3.5-3.5-1.6-3.5-3.5Z"/>
        <path id="point-0-14" class="cls-7" d="M487.4,413.3c0-1.9,1.6-3.5,3.5-3.5s3.5,1.6,3.5,3.5-1.6,3.5-3.5,3.5-3.5-1.6-3.5-3.5Z"/>
        <path id="point-0-15" class="cls-7" d="M517,416.3c0-1.9,1.6-3.5,3.5-3.5s3.5,1.6,3.5,3.5-1.6,3.5-3.5,3.5-3.5-1.6-3.5-3.5Z"/>
        <path id="point-0-16" class="cls-7" d="M546.7,415.7c0-1.9,1.6-3.5,3.5-3.5s3.5,1.6,3.5,3.5-1.6,3.5-3.5,3.5-3.5-1.6-3.5-3.5Z"/>
        <path id="point-0-17" class="cls-7" d="M576.3,415.7c0-1.9,1.6-3.5,3.5-3.5s3.5,1.6,3.5,3.5-1.6,3.5-3.5,3.5-3.5-1.6-3.5-3.5Z"/>
        <path id="point-0-18" class="cls-7" d="M605.9,414.5c0-1.9,1.6-3.5,3.5-3.5s3.5,1.6,3.5,3.5-1.6,3.5-3.5,3.5-3.5-1.6-3.5-3.5Z"/>
        <path id="point-0-19" class="cls-7" d="M635.6,409c0-1.9,1.6-3.5,3.5-3.5s3.5,1.6,3.5,3.5-1.6,3.5-3.5,3.5-3.5-1.6-3.5-3.5Z"/>
        <path id="point-0-20" class="cls-7" d="M665.2,407.2c0-1.9,1.6-3.5,3.5-3.5s3.5,1.6,3.5,3.5-1.6,3.5-3.5,3.5-3.5-1.6-3.5-3.5Z"/>
      </g>
    </g>
  </g>
  <g id="ligne_rouge">
    <g pointer-events="ligne_rouge">
      <g class="cls-10">
        <path class="cls-17" d="M76,137.2c9.9,52.4,19.8,104.8,29.6,116.9,9.9,12.1,19.8,18.2,29.6,18.2s19.8-9.1,29.6-9.1,19.8,129.6,29.6,129.6,19.8-38.1,29.6-38.1,19.8,36.9,29.6,36.9,19.8-33.3,29.6-33.3,19.8,47.2,29.6,47.2,19.8-107.8,29.6-107.8,19.8,41.1,29.6,55.1c9.9,14,19.8,22.6,29.6,29.1,9.9,6.5,19.8,9.7,29.6,9.7s19.8-173.2,29.6-173.2,19.8,107.4,29.6,139.3c9.9,31.9,19.8,52.1,29.6,52.1s19.8-27.2,29.6-27.2,19.8,24.2,29.6,24.2,19.8-6.5,29.6-10.9c9.9-4.4,19.8-15.7,29.6-15.7s19.8,13.3,29.6,26.6v.6h0c-9.9.3-19.8.6-29.6,1.8-9.9,1.2-19.8,4.6-29.6,5.5-9.9.8-19.8,1.2-29.6,1.2h-29.6c-9.9,0-19.8.6-29.6.6s-19.8-3-29.6-3h-29.6c-9.9,0-19.8-7.3-29.6-7.3s-19.8,8.5-29.6,8.5h-29.6c-9.9,0-19.8.3-29.6.6-9.9.3-19.8,1.2-29.6,1.2s-19.8-5.4-29.6-5.4-19.8,3.6-29.6,3.6-19.8-3.6-29.6-3.6-19.8,3.6-29.6,3.6h-29.6c-9.9,0-19.8-4.2-29.6-4.2s-19.8,1.8-29.6,1.8-19.8-3.3-29.6-6.7V137.2h0Z"/>
      </g>
    </g>
    <g>
      <g class="cls-21">
        <path class="cls-12" d="M76,137.2c9.9,52.4,19.8,104.8,29.6,116.9,9.9,12.1,19.8,18.2,29.6,18.2s19.8-9.1,29.6-9.1,19.8,129.6,29.6,129.6,19.8-38.1,29.6-38.1,19.8,36.9,29.6,36.9,19.8-33.3,29.6-33.3,19.8,47.2,29.6,47.2,19.8-107.8,29.6-107.8,19.8,41.1,29.6,55.1c9.9,14,19.8,22.6,29.6,29.1,9.9,6.5,19.8,9.7,29.6,9.7s19.8-173.2,29.6-173.2,19.8,107.4,29.6,139.3c9.9,31.9,19.8,52.1,29.6,52.1s19.8-27.2,29.6-27.2,19.8,24.2,29.6,24.2,19.8-6.5,29.6-10.9c9.9-4.4,19.8-15.7,29.6-15.7s19.8,13.3,29.6,26.6" pointer-events="none"/>
      </g>
      <g class="cls-8">
        <path class="cls-14" d="M76,137.2c9.9,52.4,19.8,104.8,29.6,116.9,9.9,12.1,19.8,18.2,29.6,18.2s19.8-9.1,29.6-9.1,19.8,129.6,29.6,129.6,19.8-38.1,29.6-38.1,19.8,36.9,29.6,36.9,19.8-33.3,29.6-33.3,19.8,47.2,29.6,47.2,19.8-107.8,29.6-107.8,19.8,41.1,29.6,55.1c9.9,14,19.8,22.6,29.6,29.1,9.9,6.5,19.8,9.7,29.6,9.7s19.8-173.2,29.6-173.2,19.8,107.4,29.6,139.3c9.9,31.9,19.8,52.1,29.6,52.1s19.8-27.2,29.6-27.2,19.8,24.2,29.6,24.2,19.8-6.5,29.6-10.9c9.9-4.4,19.8-15.7,29.6-15.7s19.8,13.3,29.6,26.6" pointer-events="none"/>
      </g>
    </g>
    <g id="ligne_rouge">
      <g class="cls-9">
        <g>
          <path id="point-1-0" class="cls-23" d="M72.5,137.2c0-1.9,1.6-3.5,3.5-3.5s3.5,1.6,3.5,3.5h0c0,1.9-1.6,3.5-3.5,3.5s-3.5-1.6-3.5-3.5h0Z"/>
          <path id="point-1-1" class="cls-23" d="M102.1,254c0-1.9,1.6-3.5,3.5-3.5s3.5,1.6,3.5,3.5-1.6,3.5-3.5,3.5-3.5-1.6-3.5-3.5Z"/>
          <path id="point-1-2" class="cls-23" d="M131.8,272.2c0-1.9,1.6-3.5,3.5-3.5s3.5,1.6,3.5,3.5-1.6,3.5-3.5,3.5-3.5-1.6-3.5-3.5Z"/>
          <path id="point-1-3" class="cls-23" d="M161.4,263.1c0-1.9,1.6-3.5,3.5-3.5s3.5,1.6,3.5,3.5-1.6,3.5-3.5,3.5-3.5-1.6-3.5-3.5Z"/>
          <path id="point-1-4" class="cls-23" d="M191,392.7c0-1.9,1.6-3.5,3.5-3.5s3.5,1.6,3.5,3.5-1.6,3.5-3.5,3.5-3.5-1.6-3.5-3.5Z"/>
          <path id="point-1-5" class="cls-23" d="M220.7,354.5c0-1.9,1.6-3.5,3.5-3.5s3.5,1.6,3.5,3.5-1.6,3.5-3.5,3.5-3.5-1.6-3.5-3.5Z"/>
          <path id="point-1-6" class="cls-23" d="M250.3,391.5c0-1.9,1.6-3.5,3.5-3.5s3.5,1.6,3.5,3.5-1.6,3.5-3.5,3.5-3.5-1.6-3.5-3.5h0Z"/>
          <path id="point-1-7" class="cls-23" d="M280,358.2c0-1.9,1.6-3.5,3.5-3.5s3.5,1.6,3.5,3.5h0c0,1.9-1.6,3.5-3.5,3.5s-3.5-1.6-3.5-3.5h0Z"/>
          <path id="point-1-8" class="cls-23" d="M309.6,405.4c0-1.9,1.6-3.5,3.5-3.5s3.5,1.6,3.5,3.5-1.6,3.5-3.5,3.5-3.5-1.6-3.5-3.5Z"/>
          <path id="point-1-9" class="cls-23" d="M339.2,297.6c0-1.9,1.6-3.5,3.5-3.5s3.5,1.6,3.5,3.5-1.6,3.5-3.5,3.5-3.5-1.6-3.5-3.5Z"/>
          <path id="point-1-10" class="cls-23" d="M368.9,352.7c0-1.9,1.6-3.5,3.5-3.5s3.5,1.6,3.5,3.5-1.6,3.5-3.5,3.5-3.5-1.6-3.5-3.5Z"/>
          <path id="point-1-11" class="cls-23" d="M398.5,381.8c0-1.9,1.6-3.5,3.5-3.5s3.5,1.6,3.5,3.5-1.6,3.5-3.5,3.5-3.5-1.6-3.5-3.5Z"/>
          <path id="point-1-12" class="cls-23" d="M428.1,391.5c0-1.9,1.6-3.5,3.5-3.5s3.5,1.6,3.5,3.5-1.6,3.5-3.5,3.5-3.5-1.6-3.5-3.5Z"/>
          <path id="point-1-13" class="cls-23" d="M457.8,218.3c0-1.9,1.6-3.5,3.5-3.5s3.5,1.6,3.5,3.5-1.6,3.5-3.5,3.5-3.5-1.6-3.5-3.5Z"/>
          <path id="point-1-14" class="cls-23" d="M487.4,357.6c0-1.9,1.6-3.5,3.5-3.5s3.5,1.6,3.5,3.5-1.6,3.5-3.5,3.5-3.5-1.6-3.5-3.5Z"/>
          <path id="point-1-15" class="cls-23" d="M517,409.6c0-1.9,1.6-3.5,3.5-3.5s3.5,1.6,3.5,3.5-1.6,3.5-3.5,3.5-3.5-1.6-3.5-3.5Z"/>
          <path id="point-1-16" class="cls-23" d="M546.7,382.4c0-1.9,1.6-3.5,3.5-3.5s3.5,1.6,3.5,3.5-1.6,3.5-3.5,3.5-3.5-1.6-3.5-3.5Z"/>
          <path id="point-1-17" class="cls-23" d="M576.3,406.6c0-1.9,1.6-3.5,3.5-3.5s3.5,1.6,3.5,3.5-1.6,3.5-3.5,3.5-3.5-1.6-3.5-3.5Z"/>
          <path id="point-1-18" class="cls-23" d="M605.9,395.7c0-1.9,1.6-3.5,3.5-3.5s3.5,1.6,3.5,3.5-1.6,3.5-3.5,3.5-3.5-1.6-3.5-3.5Z"/>
          <path id="point-1-19" class="cls-23" d="M635.6,380c0-1.9,1.6-3.5,3.5-3.5s3.5,1.6,3.5,3.5-1.6,3.5-3.5,3.5-3.5-1.6-3.5-3.5Z"/>
          <path id="point-1-20" class="cls-23" d="M665.2,406.6c0-1.9,1.6-3.5,3.5-3.5s3.5,1.6,3.5,3.5-1.6,3.5-3.5,3.5-3.5-1.6-3.5-3.5Z"/>
        </g>
      </g>
    </g>
  </g>
  <g id="titre">
    <g class="cls-3">
      <g class="cls-3">
        <text class="cls-1" transform="translate(10.5 26.9)"><tspan x="0" y="0">Number of Charging Points for the Number of electric vehicles</tspan></text>
      </g>
    </g>
  </g>
  <g id="legende_2">
    <g class="cls-3">
      <g class="cls-3">
        <text class="cls-4" transform="translate(23.8 71.1)"><tspan x="0" y="0">nbre_pdc</tspan></text>
      </g>
    </g>
    <circle class="cls-7" cx="15.8" cy="78.2" r="5.2"/>
  </g>
  <g id="nb_x5F_vp_rechargeable">
    <g>
      <path class="cls-13" d="M674.2,406.6h1.8v-12.6h1.8"/>
      <g class="cls-3">
        <g class="cls-3">
          <text class="cls-6" transform="translate(681.2 392.3)"><tspan x="0" y="0">nb_vp</tspan></text>
        </g>
        <g class="cls-3">
          <text class="cls-6" transform="translate(681.2 404.9)"><tspan x="0" y="0">rechargeable</tspan></text>
        </g>
      </g>
      <g class="cls-3">
        <g class="cls-3">
          <text class="cls-5" transform="translate(681.2 392.3)"><tspan x="0" y="0">nb_vp</tspan></text>
        </g>
        <g class="cls-3">
          <text class="cls-5" transform="translate(681.2 404.9)"><tspan x="0" y="0">rechargeable</tspan></text>
        </g>
      </g>
    </g>
  </g>
  <g id="legende_1">
    <g class="cls-3">
      <g class="cls-3">
        <text class="cls-4" transform="translate(101.1 71.1)"><tspan x="0" y="0">nb_vp rechargeable</tspan></text>
      </g>
    </g>
    <circle class="cls-23" cx="93.1" cy="78.2" r="5.2"/>
  </g>
</svg>